<svg xmlns="http://www.w3.org/2000/svg" width="888" height="200" viewBox="0 0 888 200">
  <g fill="#2E3440">
    <path d="M466.56 127.463l-43.392-55.546V56.506l48.091 62.172h25.844V31.132h-43.465l-9.396-9.398h62.257v105.729z"/>
    <path d="M421.439 21.734l43.394 55.541v15.41l-48.092-62.168h-25.843v87.546h43.464l9.4 9.4H381.5V21.734z"/>
  </g>
  <path fill="none" d="M362.414 144.962h225.227v32.705H362.414z"/>
  <path fill="#88C0D0" d="M333.656 145.463h1.35l21.959 31.004h.09v-31.004h.9v32.129h-1.35l-21.959-31.004h-.09v31.004h-.9v-32.129zm38.429 8.459c6.75 0 10.395 5.805 10.395 12.105 0 6.344-3.645 12.104-10.44 12.104-6.75 0-10.395-5.76-10.395-12.104.001-6.3 3.646-12.105 10.44-12.105zm0 23.308c6.165 0 9.495-5.354 9.495-11.203 0-5.76-3.33-11.205-9.495-11.205-6.255 0-9.54 5.445-9.54 11.205.001 5.85 3.286 11.203 9.54 11.203zm15.031.362h-.9v-23.129h.9v5.715h.09c.855-3.42 3.555-6.436 9.09-6.256v.9c-6.345-.314-9.18 4.635-9.18 9.674v13.096zm28.753-32.129h.9v32.129h-.9v-6.48h-.09c-1.17 4.051-4.545 7.02-9.27 7.02-6.12 0-9.855-5.084-9.855-12.059 0-6.48 3.465-12.15 9.855-12.15 4.905 0 8.189 2.836 9.27 7.02h.09v-15.48zm-9.359 9.359c-6.345 0-8.955 5.895-8.955 11.25 0 5.939 2.97 11.158 8.955 11.158 5.939 0 9.359-5.174 9.359-11.158 0-7.154-3.735-11.25-9.359-11.25z"/>
  <path fill="#2E3440" d="M432.204 145.463h3.601l9.09 13.455 9.404-13.455h3.42l-10.98 15.658 11.609 16.471h-3.689l-9.764-14.176-9.9 14.176h-3.465l11.564-16.561-10.89-15.568zm44.775 16.199c-.766-3.465-2.88-5.58-6.57-5.58-5.444 0-8.145 4.949-8.145 9.9 0 4.949 2.7 9.898 8.145 9.898 3.51 0 6.39-2.744 6.75-6.613h2.835c-.765 5.578-4.41 8.998-9.585 8.998-7.109 0-10.979-5.625-10.979-12.283 0-6.66 3.87-12.285 10.979-12.285 4.95 0 8.774 2.654 9.405 7.965h-2.835zm27.764 4.32c0 6.658-3.87 12.283-10.979 12.283-7.11 0-10.979-5.625-10.979-12.283 0-6.66 3.869-12.285 10.979-12.285 7.109 0 10.979 5.625 10.979 12.285zm-19.124 0c0 4.949 2.699 9.898 8.145 9.898 5.444 0 8.145-4.949 8.145-9.898 0-4.951-2.7-9.9-8.145-9.9-5.446 0-8.145 4.949-8.145 9.9zm43.783 11.61h-2.609v-4.41h-.091c-1.215 3.016-4.904 5.084-8.279 5.084-7.064 0-10.439-5.715-10.439-12.283 0-6.57 3.375-12.285 10.439-12.285 3.465 0 6.84 1.756 8.055 5.084h.09v-13.318h2.835v32.128zm-10.979-1.711c6.03 0 8.145-5.084 8.145-9.898 0-4.816-2.114-9.9-8.145-9.9-5.399 0-7.604 5.084-7.604 9.9-.001 4.814 2.204 9.898 7.604 9.898zm18.045-9.135c.045 4.141 2.204 9.135 7.649 9.135 4.14 0 6.39-2.43 7.29-5.939h2.834c-1.215 5.266-4.274 8.324-10.124 8.324-7.38 0-10.484-5.67-10.484-12.283 0-6.121 3.104-12.285 10.484-12.285 7.47 0 10.439 6.525 10.215 13.049h-17.864zm15.029-2.385c-.136-4.273-2.79-8.279-7.38-8.279-4.635 0-7.2 4.051-7.649 8.279h15.029z"/>
</svg>
